<svg width="21" height="20" viewBox="0 0 21 20" fill="none" xmlns="http://www.w3.org/2000/svg">
<path d="M3.8333 17.5C3.89973 17.5081 3.96688 17.5081 4.0333 17.5L7.36664 16.6667C7.51451 16.6316 7.64995 16.5566 7.7583 16.45L18 6.17504C18.3104 5.86277 18.4846 5.44035 18.4846 5.00004C18.4846 4.55973 18.3104 4.13731 18 3.82504L16.6833 2.50004C16.5285 2.34508 16.3447 2.22215 16.1424 2.13828C15.94 2.0544 15.7232 2.01123 15.5041 2.01123C15.2851 2.01123 15.0682 2.0544 14.8659 2.13828C14.6636 2.22215 14.4798 2.34508 14.325 2.50004L4.0833 12.7417C3.97563 12.8506 3.89809 12.9855 3.8583 13.1334L3.02497 16.4667C2.99502 16.5745 2.98709 16.6873 3.00166 16.7982C3.01623 16.9092 3.053 17.0161 3.10977 17.1125C3.16655 17.209 3.24216 17.293 3.33211 17.3595C3.42205 17.4261 3.52449 17.4739 3.6333 17.5C3.69973 17.5081 3.76688 17.5081 3.8333 17.5ZM15.5 3.67504L16.825 5.00004L15.5 6.32504L14.1833 5.00004L15.5 3.67504ZM5.42497 13.7584L13 6.17504L14.325 7.50004L6.74164 15.0834L4.9833 15.5167L5.42497 13.7584Z" fill="black"/>
</svg>
